# xmcd CD database file
#
# Track frame offsets:
#	150
#	10171
#	22416
#	61462
#	78383
#	93647
#	106505
#	118989
#	130765
#	144318
#
# Disc length: 2093 seconds
#
# Revision: 0
# Processed by: cddbd v1.5.1PL0 Copyright (c) Steve Scherf et al.
# Submitted via: CDex 1.51
#
DISCID=83082b0a
DTITLE=Benny Goodman - King of Swing
DYEAR=2004
DGENRE=Jazz
TTITLE0=Romeo and Juliet
TTITLE1=Rosetta
TTITLE2=Sing Sing Sing
TTITLE3=Sometimes I'm Happy
TTITLE4=St. Louis Blues
TTITLE5=Stompin' at the Savoy
TTITLE6=Sugar Foot Stomp
TTITLE7=To Each His Own
TTITLE8=Who's Sorry Now
TTITLE9=You Turned the Tables on Me
EXTD=YEAR: 2004
EXTT0=
EXTT1=
EXTT2=
EXTT3=
EXTT4=
EXTT5=
EXTT6=
EXTT7=
EXTT8=
EXTT9=
PLAYORDER=
